<svg width="48" height="48" viewBox="0 0 48 48" fill="none" xmlns="http://www.w3.org/2000/svg">
<path d="M43 25C43 35.4934 34.4934 44 24 44C13.5066 44 5 35.4934 5 25C5 14.5066 13.5066 6 24 6C34.4934 6 43 14.5066 43 25Z" fill="white" fill-opacity="0.1"/>
<path d="M20.8754 43.7443V29.9394H15.7959V24.1216H20.8754V19.6876C20.8754 14.6451 23.8623 11.8579 28.4298 11.8579C30.618 11.8579 32.9074 12.2512 32.9074 12.2512V17.2031H30.3846C27.9011 17.2031 27.1248 18.7538 27.1248 20.3469V24.1216H32.6712L31.7852 29.9394H27.1248V43.7443C26.121 43.9104 25.0907 43.9978 24.0404 44H23.9596C22.9094 43.9978 21.8791 43.9104 20.8754 43.7443Z" fill="white"/>
</svg>
