<svg width="48" height="48" viewBox="0 0 48 48" fill="none" xmlns="http://www.w3.org/2000/svg">
<circle cx="24" cy="24" r="20" fill="white" fill-opacity="0.1"/>
<path fill-rule="evenodd" clip-rule="evenodd" d="M18.3513 24C18.3513 20.8804 20.8803 18.3513 23.9999 18.3513C27.1196 18.3513 29.6486 20.8804 29.6486 24C29.6486 27.1196 27.1196 29.6486 23.9999 29.6486C20.8803 29.6486 18.3513 27.1196 18.3513 24ZM20.3334 23.9999C20.3333 26.0249 21.975 27.6665 23.9999 27.6666C26.0249 27.6666 27.6666 26.0249 27.6666 23.9999C27.6666 21.975 26.0251 20.3334 24 20.3333C21.975 20.3333 20.3334 21.975 20.3334 23.9999Z" fill="white"/>
<path d="M29.8719 19.4482C30.6008 19.4482 31.1918 18.8572 31.1918 18.1282C31.1918 17.3991 30.6008 16.8081 29.8719 16.8081C29.1427 16.8081 28.5518 17.3991 28.5518 18.1282C28.5518 18.8572 29.1427 19.4482 29.8719 19.4482Z" fill="white"/>
<path fill-rule="evenodd" clip-rule="evenodd" d="M34.4224 16.7947C34.6944 17.4943 34.8803 18.2939 34.9339 19.4648C34.9872 20.6379 35 21.0125 35 24C35 26.9873 34.9872 27.362 34.9339 28.5352C34.8803 29.7059 34.6945 30.5056 34.4224 31.2053C33.8511 32.6829 32.683 33.8509 31.2055 34.4223C30.5057 34.6944 29.7063 34.8802 28.5354 34.9337C27.3623 34.9872 26.9875 34.9998 24.0002 34.9998C21.0128 34.9998 20.6382 34.9872 19.465 34.9337C18.2941 34.8802 17.4944 34.6944 16.7948 34.4223C16.0609 34.1462 15.3958 33.7131 14.8465 33.1535C14.2869 32.6042 13.8538 31.9391 13.5777 31.2053C13.3058 30.5056 13.1198 29.7059 13.0665 28.5352C13.0128 27.3621 13 26.9873 13 23.9998C13 21.0125 13.0128 20.6379 13.0665 19.4646C13.1197 18.2939 13.3055 17.4943 13.5772 16.7945C13.8535 16.0605 14.2867 15.3957 14.8463 14.8463C15.3958 14.2867 16.0607 13.8537 16.7947 13.5776C17.4944 13.3056 18.2939 13.1197 19.4648 13.0661C20.6379 13.0128 21.0127 13 24 13C26.9873 13 27.3621 13.0128 28.5352 13.0665C29.7061 13.1197 30.5056 13.3055 31.2053 13.5772C31.9393 13.8535 32.6043 14.2867 33.1537 14.8463C33.7133 15.3958 34.1463 16.0607 34.4224 16.7947ZM32.5751 30.4876C32.7257 30.1001 32.9049 29.5176 32.9538 28.4451C33.0068 27.2851 33.0179 26.9373 33.0179 24C33.0179 21.0629 33.0067 20.7149 32.9538 19.5551C32.9049 18.4825 32.7257 17.9001 32.575 17.5126C32.3987 17.0347 32.1176 16.6025 31.7522 16.2477C31.3973 15.8824 30.9651 15.6013 30.4874 15.4249C30.0997 15.2743 29.5175 15.0951 28.4449 15.0462C27.2849 14.9932 26.937 14.9819 24 14.9819C21.0629 14.9819 20.7149 14.9932 19.5551 15.0461C18.4825 15.0951 17.9001 15.2742 17.5126 15.4249C17.0347 15.6011 16.6025 15.8823 16.2477 16.2477C15.8824 16.6025 15.6011 17.0347 15.4247 17.5126C15.2742 17.9001 15.0951 18.4825 15.0461 19.5551C14.9932 20.7151 14.9819 21.0629 14.9819 24.0002C14.9819 26.9373 14.9932 27.2853 15.0461 28.4451C15.0949 29.5176 15.2742 30.1001 15.4247 30.4876C15.6011 30.9655 15.8823 31.3975 16.2477 31.7523C16.6025 32.1177 17.0347 32.3989 17.5124 32.5753C17.9001 32.7258 18.4825 32.9051 19.5549 32.9539C20.7147 33.007 21.0625 33.0181 24 33.0181C26.9373 33.0181 27.2853 33.007 28.4449 32.9539C29.5175 32.9051 30.0999 32.7258 30.4874 32.5753C31.4469 32.2052 32.205 31.447 32.5751 30.4876Z" fill="white"/>
</svg>
