<svg width="48" height="48" viewBox="0 0 48 48" fill="none" xmlns="http://www.w3.org/2000/svg">
<path d="M44 24C44 35.0457 35.0457 44 24 44C12.9543 44 4 35.0457 4 24C4 12.9543 12.9543 4 24 4C35.0457 4 44 12.9543 44 24Z" fill="white" fill-opacity="0.1"/>
<path fill-rule="evenodd" clip-rule="evenodd" d="M34.0701 15.5255C35.1369 15.8121 35.9809 16.6561 36.2675 17.7229C36.793 19.6656 36.8089 23.6943 36.8089 23.6943C36.8089 23.6943 36.8089 27.7389 36.2834 29.6656C35.9968 30.7325 35.1529 31.5764 34.086 31.8631C32.1592 32.3885 24.4045 32.3885 24.4045 32.3885C24.4045 32.3885 16.6497 32.3885 14.7229 31.8631C13.6561 31.5764 12.8121 30.7325 12.5255 29.6656C12 27.7229 12 23.6943 12 23.6943C12 23.6943 12 19.6656 12.5096 17.7389C12.7962 16.672 13.6401 15.828 14.707 15.5414C16.6338 15.0159 24.3885 15 24.3885 15C24.3885 15 32.1433 15 34.0701 15.5255ZM28.3535 23.6944L21.9204 27.4205V19.9683L28.3535 23.6944Z" fill="white"/>
</svg>
